<svg width="85" height="84" viewBox="0 0 85 84" fill="none" xmlns="http://www.w3.org/2000/svg">
<path d="M42.5006 84H42.1955C22.5637 83.9486 9.40979 79.8846 6.676 77.3782C3.79561 74.8165 0 61.5689 0 42C0 22.4311 3.79561 9.18355 6.67996 6.6218C9.40979 4.1154 22.6152 0.0513931 42.1955 0H42.5006C62.1323 0.0513931 75.2862 4.1154 78.02 6.6218C80.9044 9.17959 84.7 22.4785 84.7 41.996C84.7 61.5136 80.9044 74.8125 78.02 77.3703C75.2862 79.9281 62.1323 83.9921 42.5006 83.9921V84Z" fill="#FFFAEB"/>
<mask id="mask0_2238_18296" style="mask-type:alpha" maskUnits="userSpaceOnUse" x="22" y="22" width="40" height="40">
<rect x="22" y="22" width="40" height="40" fill="#D9D9D9"/>
</mask>
<g mask="url(#mask0_2238_18296)">
<path d="M46.5834 35.191C46.5834 33.897 46.1622 32.8657 45.3198 32.0972C44.4773 31.3287 43.3615 30.9444 41.9723 30.9444C41.1147 30.9444 40.3385 31.1322 39.6436 31.5078C38.9488 31.8833 38.35 32.4317 37.8473 33.1528C37.4954 33.662 37.0209 33.9699 36.4237 34.0764C35.8265 34.1828 35.2778 34.0694 34.7778 33.7361C34.2964 33.412 34.0117 33.0139 33.9237 32.5417C33.8357 32.0694 33.9538 31.5787 34.2778 31.0695C35.1297 29.7732 36.2257 28.7708 37.5659 28.0625C38.9061 27.3542 40.3749 27 41.9723 27C44.6112 27 46.7385 27.7383 48.3542 29.2149C49.9699 30.6915 50.7778 32.6245 50.7778 35.0139C50.7778 36.2824 50.5047 37.4444 49.9584 38.5C49.4121 39.5556 48.4769 40.7268 47.1528 42.0139C46.1251 42.9861 45.4306 43.7543 45.0695 44.3186C44.7084 44.8828 44.4723 45.5266 44.3612 46.25C44.2686 46.8611 44.007 47.3704 43.5764 47.7778C43.1459 48.1852 42.6408 48.3889 42.0612 48.3889C41.4816 48.3889 40.984 48.1921 40.5682 47.7986C40.1524 47.4051 39.9445 46.9352 39.9445 46.3889C39.9445 45.3982 40.1899 44.456 40.6806 43.5625C41.1713 42.669 41.9479 41.7387 43.0101 40.7716C44.3645 39.5628 45.2987 38.5486 45.8126 37.7292C46.3264 36.9097 46.5834 36.0637 46.5834 35.191Z" fill="#092256"/>
<path d="M39.8126 57.7675C40.4098 58.3663 41.1289 58.6658 41.9698 58.6658C42.8108 58.6658 43.5307 58.3672 44.1295 57.7699C44.7284 57.1727 45.0278 56.4536 45.0278 55.6127C45.0278 54.7717 44.7292 54.0518 44.132 53.453C43.5348 52.8541 42.8157 52.5547 41.9747 52.5547C41.1338 52.5547 40.4139 52.8533 39.815 53.4505C39.2162 54.0477 38.9167 54.7668 38.9167 55.6078C38.9167 56.4487 39.2154 57.1686 39.8126 57.7675Z" fill="#0357EE"/>
</g>
</svg>
