<svg width="85" height="84" viewBox="0 0 85 84" fill="none" xmlns="http://www.w3.org/2000/svg">
<path d="M42.5006 84H42.1955C22.5637 83.9486 9.40979 79.8846 6.676 77.3782C3.79561 74.8165 0 61.5689 0 42C0 22.4311 3.79561 9.18355 6.67996 6.6218C9.40979 4.1154 22.6152 0.0513931 42.1955 0H42.5006C62.1323 0.0513931 75.2862 4.1154 78.02 6.6218C80.9044 9.17959 84.7 22.4785 84.7 41.996C84.7 61.5136 80.9044 74.8125 78.02 77.3703C75.2862 79.9281 62.1323 83.9921 42.5006 83.9921V84Z" fill="#FFFAEB"/>
<mask id="mask0_2238_18276" style="mask-type:alpha" maskUnits="userSpaceOnUse" x="22" y="22" width="40" height="40">
<rect x="22" y="22" width="40" height="40" fill="#D9D9D9"/>
</mask>
<g mask="url(#mask0_2238_18276)">
<path d="M28.6666 57C27.75 57 26.9653 56.6736 26.3125 56.0208C25.6597 55.3681 25.3333 54.5833 25.3333 53.6667V30.3333C25.3333 29.4167 25.6597 28.6319 26.3125 27.9792C26.9653 27.3264 27.75 27 28.6666 27H38.6666C39.5833 27 40.368 27.3264 41.0208 27.9792C41.6736 28.6319 42 29.4167 42 30.3333V33.6667H55.3333C56.25 33.6667 57.0347 33.9931 57.6875 34.6458C58.3403 35.2986 58.6666 36.0833 58.6666 37V45.3333C58.6666 45.8056 58.5069 46.2014 58.1875 46.5208C57.868 46.8403 57.4722 47 57 47C56.5278 47 56.1319 46.8403 55.8125 46.5208C55.493 46.2014 55.3333 45.8056 55.3333 45.3333V37H42V40.3333H45.3333V43.6667H42V47H45.3333V50.3333H42V53.6667H47C47.4722 53.6667 47.868 53.8264 48.1875 54.1458C48.5069 54.4653 48.6666 54.8611 48.6666 55.3333C48.6666 55.8056 48.5069 56.2014 48.1875 56.5208C47.868 56.8403 47.4722 57 47 57H28.6666ZM28.6666 53.6667H32V50.3333H28.6666V53.6667ZM28.6666 47H32V43.6667H28.6666V47ZM28.6666 40.3333H32V37H28.6666V40.3333ZM28.6666 33.6667H32V30.3333H28.6666V33.6667ZM35.3333 53.6667H38.6666V50.3333H35.3333V53.6667ZM35.3333 47H38.6666V43.6667H35.3333V47ZM35.3333 40.3333H38.6666V37H35.3333V40.3333ZM35.3333 33.6667H38.6666V30.3333H35.3333V33.6667ZM48.6666 43.6667V40.3333H52V43.6667H48.6666ZM48.6666 50.3333V47H52V50.3333H48.6666Z" fill="#092256"/>
<path d="M55.8125 59.8529C56.1319 60.1723 56.5277 60.332 57 60.332C57.4722 60.332 57.868 60.1723 58.1875 59.8529C58.5069 59.5334 58.6666 59.1376 58.6666 58.6654V56.9987H60.3333C60.8055 56.9987 61.2014 56.839 61.5208 56.5195C61.8402 56.2001 62 55.8043 62 55.332C62 54.8598 61.8402 54.464 61.5208 54.1445C61.2014 53.8251 60.8055 53.6654 60.3333 53.6654H58.6666V51.9987C58.6666 51.5265 58.5069 51.1306 58.1875 50.8112C57.868 50.4918 57.4722 50.332 57 50.332C56.5277 50.332 56.1319 50.4918 55.8125 50.8112C55.493 51.1306 55.3333 51.5265 55.3333 51.9987V53.6654H53.6666C53.1944 53.6654 52.7986 53.8251 52.4791 54.1445C52.1597 54.464 52 54.8598 52 55.332C52 55.8043 52.1597 56.2001 52.4791 56.5195C52.7986 56.839 53.1944 56.9987 53.6666 56.9987H55.3333V58.6654C55.3333 59.1376 55.493 59.5334 55.8125 59.8529Z" fill="#0357EE"/>
</g>
</svg>
