<svg width="85" height="84" viewBox="0 0 85 84" fill="none" xmlns="http://www.w3.org/2000/svg">
<path d="M42.5002 84H42.1951C22.5633 83.9486 9.40942 79.8846 6.67563 77.3782C3.79525 74.8165 -0.000366211 61.5689 -0.000366211 42C-0.000366211 22.4311 3.79525 9.18355 6.67959 6.6218C9.40942 4.1154 22.6148 0.0513931 42.1951 0H42.5002C62.132 0.0513931 75.2859 4.1154 78.0197 6.6218C80.904 9.17959 84.6996 22.4785 84.6996 41.996C84.6996 61.5136 80.904 74.8125 78.0197 77.3703C75.2859 79.9281 62.132 83.9921 42.5002 83.9921V84Z" fill="#FFFAEB"/>
<mask id="mask0_2238_18288" style="mask-type:alpha" maskUnits="userSpaceOnUse" x="21" y="22" width="41" height="41">
<rect x="21.9797" y="22.0703" width="40" height="40" fill="#D9D9D9"/>
</mask>
<g mask="url(#mask0_2238_18288)">
<path d="M26.7019 57.0703C26.3084 57.0703 25.9786 56.9372 25.7123 56.671C25.4461 56.4048 25.313 56.0749 25.313 55.6814V38.4592C25.313 38.0657 25.4461 37.7358 25.7123 37.4696C25.9786 37.2034 26.3084 37.0703 26.7019 37.0703H32.8131C33.2066 37.0703 33.5364 37.2034 33.8026 37.4696C34.0688 37.7358 34.2019 38.0657 34.2019 38.4592V55.6814C34.2019 56.0749 34.0688 56.4048 33.8026 56.671C33.5364 56.9372 33.2066 57.0703 32.8131 57.0703H26.7019ZM38.9242 57.0703C38.5306 57.0703 38.2008 56.9372 37.9346 56.671C37.6684 56.4048 37.5353 56.0749 37.5353 55.6814V28.4592C37.5353 28.0657 37.6684 27.7358 37.9346 27.4696C38.2008 27.2034 38.5306 27.0703 38.9242 27.0703H45.0353C45.4288 27.0703 45.7586 27.2034 46.0248 27.4696C46.2911 27.7358 46.4242 28.0657 46.4242 28.4592V55.6814C46.4242 56.0749 46.2911 56.4048 46.0248 56.671C45.7586 56.9372 45.4288 57.0703 45.0353 57.0703H38.9242Z" fill="#092256"/>
<path d="M50.1568 56.6697C50.423 56.9359 50.7529 57.069 51.1464 57.069H57.2575C57.651 57.069 57.9809 56.9359 58.2471 56.6697C58.5133 56.4035 58.6464 56.0736 58.6464 55.6801V41.7912C58.6464 41.3977 58.5133 41.0679 58.2471 40.8016C57.9809 40.5354 57.651 40.4023 57.2575 40.4023H51.1464C50.7529 40.4023 50.423 40.5354 50.1568 40.8016C49.8906 41.0679 49.7575 41.3977 49.7575 41.7912V55.6801C49.7575 56.0736 49.8906 56.4035 50.1568 56.6697Z" fill="#0357EE"/>
</g>
</svg>
